<mxfile host="app.diagrams.net" modified="2024-02-25T10:22:57.286Z" agent="Mozilla/5.0 (Windows NT 10.0; Win64; x64) AppleWebKit/537.36 (KHTML, like Gecko) Chrome/121.0.0.0 Safari/537.36" etag="5OhSMOtPhX5GMmfB4VaQ" version="23.1.6" type="github">
  <diagram name="페이지-1" id="HKGfNSUrw3s-wGwvvlpB">
    <mxGraphModel dx="1194" dy="566" grid="1" gridSize="10" guides="1" tooltips="1" connect="1" arrows="1" fold="1" page="1" pageScale="1" pageWidth="1169" pageHeight="827" math="0" shadow="0">
      <root>
        <mxCell id="0" />
        <mxCell id="1" parent="0" />
        <mxCell id="v87ytlTkC-8CsUQMOLxa-1" value="" style="rounded=0;whiteSpace=wrap;html=1;" parent="1" vertex="1">
          <mxGeometry x="80" y="80" width="160" height="40" as="geometry" />
        </mxCell>
        <mxCell id="v87ytlTkC-8CsUQMOLxa-2" value="" style="rounded=0;whiteSpace=wrap;html=1;" parent="1" vertex="1">
          <mxGeometry x="260" y="80" width="160" height="40" as="geometry" />
        </mxCell>
        <mxCell id="2MysIRxmDKU3SS6LHv5d-1" value="" style="ellipse;whiteSpace=wrap;html=1;" vertex="1" parent="1">
          <mxGeometry x="470" y="100" width="120" height="80" as="geometry" />
        </mxCell>
      </root>
    </mxGraphModel>
  </diagram>
</mxfile>
